<svg xmlns="http://www.w3.org/2000/svg" viewBox="0 0 1200 500" preserveAspectRatio="none" font-family="Inter,Arial,Helvetica,sans-serif">
<rect x="18.0" y="42" width="1164.0" height="402" fill="#fffdf8"/>
<line x1="18.0" y1="402.3" x2="1182.0" y2="402.3" stroke="#e7ddd2" stroke-width="1"/>
<text x="22.0" y="398.3" font-size="11" fill="#5d6970" text-anchor="start">$500</text>
<line x1="18.0" y1="360.6" x2="1182.0" y2="360.6" stroke="#e7ddd2" stroke-width="1"/>
<text x="22.0" y="356.6" font-size="11" fill="#5d6970" text-anchor="start">$1K</text>
<line x1="18.0" y1="263.8" x2="1182.0" y2="263.8" stroke="#e7ddd2" stroke-width="1"/>
<text x="22.0" y="259.8" font-size="11" fill="#5d6970" text-anchor="start">$5K</text>
<line x1="18.0" y1="222.2" x2="1182.0" y2="222.2" stroke="#e7ddd2" stroke-width="1"/>
<text x="22.0" y="218.2" font-size="11" fill="#5d6970" text-anchor="start">$10K</text>
<line x1="18.0" y1="125.4" x2="1182.0" y2="125.4" stroke="#e7ddd2" stroke-width="1"/>
<text x="22.0" y="121.4" font-size="11" fill="#5d6970" text-anchor="start">$50K</text>
<line x1="18.0" y1="83.7" x2="1182.0" y2="83.7" stroke="#e7ddd2" stroke-width="1"/>
<text x="22.0" y="79.7" font-size="11" fill="#5d6970" text-anchor="start">$100K</text>
<line x1="89.1" y1="444" x2="89.1" y2="449" stroke="#5d6970" stroke-width="1"/>
<text x="89.1" y="466" font-size="14" fill="#5d6970" text-anchor="middle">2017</text>
<line x1="205.3" y1="444" x2="205.3" y2="449" stroke="#5d6970" stroke-width="1"/>
<text x="205.3" y="466" font-size="14" fill="#5d6970" text-anchor="middle">2018</text>
<line x1="321.6" y1="444" x2="321.6" y2="449" stroke="#5d6970" stroke-width="1"/>
<text x="321.6" y="466" font-size="14" fill="#5d6970" text-anchor="middle">2019</text>
<line x1="437.9" y1="444" x2="437.9" y2="449" stroke="#5d6970" stroke-width="1"/>
<text x="437.9" y="466" font-size="14" fill="#5d6970" text-anchor="middle">2020</text>
<line x1="554.5" y1="444" x2="554.5" y2="449" stroke="#5d6970" stroke-width="1"/>
<text x="554.5" y="466" font-size="14" fill="#5d6970" text-anchor="middle">2021</text>
<line x1="670.9" y1="444" x2="670.9" y2="449" stroke="#5d6970" stroke-width="1"/>
<text x="670.9" y="466" font-size="14" fill="#5d6970" text-anchor="middle">2022</text>
<line x1="787.2" y1="444" x2="787.2" y2="449" stroke="#5d6970" stroke-width="1"/>
<text x="787.2" y="466" font-size="14" fill="#5d6970" text-anchor="middle">2023</text>
<line x1="903.5" y1="444" x2="903.5" y2="449" stroke="#5d6970" stroke-width="1"/>
<text x="903.5" y="466" font-size="14" fill="#5d6970" text-anchor="middle">2024</text>
<line x1="1020.1" y1="444" x2="1020.1" y2="449" stroke="#5d6970" stroke-width="1"/>
<text x="1020.1" y="466" font-size="14" fill="#5d6970" text-anchor="middle">2025</text>
<line x1="1136.4" y1="444" x2="1136.4" y2="449" stroke="#5d6970" stroke-width="1"/>
<text x="1136.4" y="466" font-size="14" fill="#5d6970" text-anchor="middle">2026</text>
<rect x="18.0" y="42" width="1164.0" height="402" fill="none" stroke="#5d6970" stroke-width="0.8"/>
<path d="M18.0,444.0L18.0,399.2L20.2,393.9L22.5,384.5L24.7,376.8L26.9,388.5L29.2,385.7L31.4,386.6L33.6,383.9L35.9,385.5L38.1,388.9L40.3,392.1L42.6,394.4L44.7,393.3L47.0,394.0L49.2,390.5L51.4,390.7L53.7,390.4L55.9,391.3L58.1,390.3L60.4,389.7L62.6,387.3L64.8,385.9L67.1,381.9L69.3,381.1L71.5,381.9L73.8,379.5L76.0,379.4L78.2,376.0L80.5,376.4L82.7,374.8L84.9,367.2L87.2,360.7L89.4,366.2L91.6,372.4L93.9,365.3L96.1,365.7L98.2,359.0L100.5,360.7L102.7,357.8L105.0,351.4L107.2,346.4L109.4,348.6L111.7,358.5L113.9,362.7L116.1,354.8L118.4,350.3L120.6,350.5L122.8,349.3L125.1,342.7L127.3,332.5L129.5,325.0L131.8,317.7L134.0,314.4L136.2,305.2L138.5,295.4L140.7,304.4L142.9,303.4L145.2,305.4L147.4,305.1L149.6,321.1L151.8,300.2L154.0,299.6L156.3,290.4L158.5,276.2L160.7,276.0L163.0,271.8L165.2,269.1L167.4,275.4L169.7,283.9L171.9,282.2L174.1,271.5L176.4,268.7L178.6,256.2L180.8,252.8L183.1,251.4L185.3,240.2L187.5,253.4L189.8,235.3L192.0,226.3L194.2,214.7L196.5,196.0L198.7,183.1L200.9,202.2L203.2,201.3L205.3,192.1L207.5,202.9L209.8,213.2L212.0,212.3L214.3,233.5L216.5,234.6L218.7,218.9L221.0,224.2L223.2,213.7L225.4,224.7L227.7,233.9L229.9,232.0L232.1,245.0L234.4,243.4L236.6,233.2L238.8,229.8L241.1,225.8L243.3,224.3L245.5,230.4L247.8,231.8L250.0,240.5L252.2,237.7L254.5,245.5L256.7,248.1L258.8,251.2L261.1,249.1L263.3,245.6L265.5,249.4L267.8,240.1L270.0,234.0L272.3,243.0L274.5,249.7L276.7,248.0L279.0,246.2L281.2,241.3L283.4,249.9L285.7,247.9L287.9,246.1L290.1,246.9L292.4,247.1L294.6,250.0L296.8,248.2L299.1,248.2L301.3,249.2L303.5,248.9L305.8,256.8L308.0,277.1L310.1,275.2L312.4,283.4L314.6,289.7L316.8,277.3L319.1,279.3L321.3,276.1L323.6,284.4L325.8,283.6L328.0,283.9L330.3,285.9L332.5,282.1L334.7,282.4L337.0,280.2L339.2,279.6L341.4,278.0L343.7,276.9L345.9,276.9L348.1,275.7L350.4,261.5L352.6,261.9L354.8,260.2L357.1,260.5L359.3,255.0L361.5,243.8L363.8,234.1L365.9,230.7L368.1,230.2L370.4,238.0L372.6,228.5L374.8,217.2L377.1,217.4L379.3,214.0L381.6,220.6L383.8,218.7L386.0,224.9L388.3,216.6L390.5,213.6L392.7,220.1L395.0,221.3L397.2,223.6L399.4,219.6L401.7,220.1L403.9,221.7L406.1,234.8L408.4,235.7L410.6,233.2L412.8,233.9L415.1,224.9L417.2,226.9L419.4,228.1L421.7,231.4L423.9,243.2L426.1,240.1L428.4,238.9L430.6,242.3L432.9,239.4L435.1,240.1L437.3,240.2L439.6,234.1L441.8,230.5L444.0,231.3L446.3,226.2L448.5,221.5L450.7,222.6L453.0,222.6L455.2,231.5L457.4,234.8L459.7,259.3L461.9,254.6L464.1,253.7L466.4,245.4L468.6,243.9L470.7,242.0L473.0,238.0L475.2,229.2L477.4,230.1L479.7,224.2L481.9,229.9L484.1,225.5L486.4,223.6L488.6,226.0L490.9,226.5L493.1,227.5L495.3,228.0L497.6,226.7L499.8,227.3L502.0,222.7L504.3,216.1L506.5,212.8L508.7,211.7L511.0,212.9L513.2,212.7L515.4,220.5L517.7,220.2L519.9,216.8L522.1,217.7L524.4,218.3L526.5,214.4L528.7,213.8L531.0,206.2L533.2,203.1L535.4,195.9L537.7,194.1L539.9,185.6L542.2,186.2L544.4,182.5L546.6,183.1L548.9,170.8L551.1,164.1L553.3,150.8L555.6,141.3L557.8,145.5L560.0,151.7L562.3,150.1L564.5,140.5L566.7,126.9L569.0,116.9L571.2,131.5L573.4,123.9L575.7,115.1L577.8,116.9L580.0,118.6L582.3,115.7L584.5,114.2L586.7,118.3L589.0,126.6L591.2,117.9L593.4,116.2L595.7,129.8L597.9,147.2L600.2,145.7L602.4,145.4L604.6,140.2L606.9,145.6L609.1,147.4L611.3,146.3L613.6,148.1L615.8,152.6L618.0,146.2L620.3,138.8L622.5,133.3L624.7,129.0L627.0,126.2L629.2,126.8L631.3,123.3L633.6,130.3L635.8,128.8L638.0,134.1L640.3,127.6L642.5,119.9L644.7,112.9L647.0,113.5L649.2,113.1L651.5,111.2L653.7,109.2L655.9,115.7L658.2,117.2L660.4,126.1L662.6,125.3L664.9,129.5L667.1,124.4L669.3,128.7L671.6,136.0L673.8,134.3L676.0,144.7L678.3,142.0L680.5,135.3L682.7,135.6L684.9,141.2L687.1,142.3L689.3,141.2L691.6,142.1L693.8,136.9L696.0,129.3L698.3,129.8L700.5,135.6L702.7,139.2L705.0,139.6L707.2,141.1L709.5,148.5L711.7,153.5L713.9,155.4L716.2,157.2L718.4,156.3L720.6,163.0L722.9,178.8L725.1,177.5L727.3,182.6L729.6,177.9L731.8,178.2L734.0,173.1L736.3,171.2L738.4,171.6L740.6,168.7L742.9,176.0L745.1,181.6L747.3,180.5L749.6,175.4L751.8,182.2L754.0,184.2L756.3,183.4L758.5,182.2L760.7,182.7L763.0,181.8L765.2,178.6L767.5,177.7L769.7,192.6L771.9,192.8L774.2,192.2L776.4,189.8L778.6,189.9L780.9,191.1L783.1,190.8L785.3,191.6L787.6,189.9L789.8,177.9L791.9,172.8L794.2,170.1L796.4,172.2L798.6,175.3L800.9,168.7L803.1,170.6L805.3,173.6L807.6,174.3L809.8,160.2L812.0,160.3L814.3,159.8L816.5,159.5L818.8,155.5L821.0,161.1L823.2,157.6L825.5,159.3L827.7,162.6L829.9,163.0L832.2,160.1L834.4,162.2L836.6,164.8L838.9,163.9L841.1,155.1L843.2,154.9L845.5,155.7L847.7,155.6L849.9,155.9L852.2,157.6L854.4,158.0L856.6,157.5L858.9,164.3L861.1,164.5L863.3,164.8L865.6,165.1L867.8,163.5L870.0,164.1L872.3,160.3L874.5,160.4L876.8,162.1L879.0,156.1L881.2,147.6L883.5,146.7L885.7,143.4L887.9,142.9L890.2,142.7L892.4,138.8L894.6,133.4L896.9,136.8L899.0,134.4L901.2,135.5L903.5,133.1L905.7,136.1L907.9,136.5L910.2,135.8L912.4,135.0L914.6,127.5L916.9,122.9L919.1,123.3L921.3,111.3L923.6,106.0L925.8,106.5L928.1,107.6L930.3,104.0L932.5,105.7L934.8,108.9L937.0,109.7L939.2,111.4L941.5,110.5L943.7,113.0L945.9,108.4L948.2,106.4L950.3,107.1L952.5,105.4L954.8,108.1L957.0,111.3L959.2,111.8L961.5,118.7L963.7,113.6L965.9,106.7L968.2,106.7L970.4,116.3L972.6,115.7L974.9,115.9L977.1,110.2L979.3,117.1L981.6,119.8L983.8,115.2L986.1,110.9L988.3,109.0L990.5,111.6L992.8,111.6L995.0,106.0L997.2,106.9L999.5,106.2L1001.7,96.7L1003.8,90.1L1006.1,84.9L1008.3,85.3L1010.5,82.9L1012.8,81.2L1015.0,86.7L1017.2,87.7L1019.5,84.7L1021.7,87.1L1023.9,83.0L1026.2,82.1L1028.4,85.1L1030.6,85.8L1032.9,86.0L1035.1,86.0L1037.4,87.2L1039.6,96.7L1041.8,95.2L1044.1,92.7L1046.3,95.4L1048.5,98.5L1050.8,94.4L1053.0,93.3L1055.2,87.6L1057.4,87.2L1059.6,81.3L1061.8,79.9L1064.1,78.5L1066.3,80.4L1068.5,80.3L1070.8,80.4L1073.0,83.1L1075.2,78.8L1077.5,78.4L1079.7,73.2L1081.9,74.1L1084.2,73.0L1086.4,75.7L1088.6,73.1L1090.9,74.0L1093.1,76.1L1095.4,78.9L1097.6,77.3L1099.8,75.1L1102.1,75.1L1104.3,76.8L1106.5,71.0L1108.8,75.2L1110.9,78.7L1113.1,75.6L1115.4,77.6L1117.6,80.9L1119.8,87.3L1122.1,92.2L1124.3,89.8L1126.5,89.8L1128.8,91.3L1131.0,90.9L1133.2,91.5L1135.5,89.1L1137.7,89.5L1139.9,87.6L1142.2,92.4L1144.4,99.4L1146.7,104.9L1148.9,106.2L1151.1,107.2L1153.4,108.9L1155.6,108.7L1157.8,102.8L1160.1,107.0L1162.3,108.7L1164.4,106.0L1166.7,104.5L1168.9,101.9L1171.1,98.1L1173.4,98.2L1175.6,95.5L1177.8,99.1L1180.1,99.7L1182.0,99.9L1182.0,444.0 Z" fill="#0d5f4c" fill-opacity="0.08"/>
<path d="M18.0,399.2L20.2,393.9L22.5,384.5L24.7,376.8L26.9,388.5L29.2,385.7L31.4,386.6L33.6,383.9L35.9,385.5L38.1,388.9L40.3,392.1L42.6,394.4L44.7,393.3L47.0,394.0L49.2,390.5L51.4,390.7L53.7,390.4L55.9,391.3L58.1,390.3L60.4,389.7L62.6,387.3L64.8,385.9L67.1,381.9L69.3,381.1L71.5,381.9L73.8,379.5L76.0,379.4L78.2,376.0L80.5,376.4L82.7,374.8L84.9,367.2L87.2,360.7L89.4,366.2L91.6,372.4L93.9,365.3L96.1,365.7L98.2,359.0L100.5,360.7L102.7,357.8L105.0,351.4L107.2,346.4L109.4,348.6L111.7,358.5L113.9,362.7L116.1,354.8L118.4,350.3L120.6,350.5L122.8,349.3L125.1,342.7L127.3,332.5L129.5,325.0L131.8,317.7L134.0,314.4L136.2,305.2L138.5,295.4L140.7,304.4L142.9,303.4L145.2,305.4L147.4,305.1L149.6,321.1L151.8,300.2L154.0,299.6L156.3,290.4L158.5,276.2L160.7,276.0L163.0,271.8L165.2,269.1L167.4,275.4L169.7,283.9L171.9,282.2L174.1,271.5L176.4,268.7L178.6,256.2L180.8,252.8L183.1,251.4L185.3,240.2L187.5,253.4L189.8,235.3L192.0,226.3L194.2,214.7L196.5,196.0L198.7,183.1L200.9,202.2L203.2,201.3L205.3,192.1L207.5,202.9L209.8,213.2L212.0,212.3L214.3,233.5L216.5,234.6L218.7,218.9L221.0,224.2L223.2,213.7L225.4,224.7L227.7,233.9L229.9,232.0L232.1,245.0L234.4,243.4L236.6,233.2L238.8,229.8L241.1,225.8L243.3,224.3L245.5,230.4L247.8,231.8L250.0,240.5L252.2,237.7L254.5,245.5L256.7,248.1L258.8,251.2L261.1,249.1L263.3,245.6L265.5,249.4L267.8,240.1L270.0,234.0L272.3,243.0L274.5,249.7L276.7,248.0L279.0,246.2L281.2,241.3L283.4,249.9L285.7,247.9L287.9,246.1L290.1,246.9L292.4,247.1L294.6,250.0L296.8,248.2L299.1,248.2L301.3,249.2L303.5,248.9L305.8,256.8L308.0,277.1L310.1,275.2L312.4,283.4L314.6,289.7L316.8,277.3L319.1,279.3L321.3,276.1L323.6,284.4L325.8,283.6L328.0,283.9L330.3,285.9L332.5,282.1L334.7,282.4L337.0,280.2L339.2,279.6L341.4,278.0L343.7,276.9L345.9,276.9L348.1,275.7L350.4,261.5L352.6,261.9L354.8,260.2L357.1,260.5L359.3,255.0L361.5,243.8L363.8,234.1L365.9,230.7L368.1,230.2L370.4,238.0L372.6,228.5L374.8,217.2L377.1,217.4L379.3,214.0L381.6,220.6L383.8,218.7L386.0,224.9L388.3,216.6L390.5,213.6L392.7,220.1L395.0,221.3L397.2,223.6L399.4,219.6L401.7,220.1L403.9,221.7L406.1,234.8L408.4,235.7L410.6,233.2L412.8,233.9L415.1,224.9L417.2,226.9L419.4,228.1L421.7,231.4L423.9,243.2L426.1,240.1L428.4,238.9L430.6,242.3L432.9,239.4L435.1,240.1L437.3,240.2L439.6,234.1L441.8,230.5L444.0,231.3L446.3,226.2L448.5,221.5L450.7,222.6L453.0,222.6L455.2,231.5L457.4,234.8L459.7,259.3L461.9,254.6L464.1,253.7L466.4,245.4L468.6,243.9L470.7,242.0L473.0,238.0L475.2,229.2L477.4,230.1L479.7,224.2L481.9,229.9L484.1,225.5L486.4,223.6L488.6,226.0L490.9,226.5L493.1,227.5L495.3,228.0L497.6,226.7L499.8,227.3L502.0,222.7L504.3,216.1L506.5,212.8L508.7,211.7L511.0,212.9L513.2,212.7L515.4,220.5L517.7,220.2L519.9,216.8L522.1,217.7L524.4,218.3L526.5,214.4L528.7,213.8L531.0,206.2L533.2,203.1L535.4,195.9L537.7,194.1L539.9,185.6L542.2,186.2L544.4,182.5L546.6,183.1L548.9,170.8L551.1,164.1L553.3,150.8L555.6,141.3L557.8,145.5L560.0,151.7L562.3,150.1L564.5,140.5L566.7,126.9L569.0,116.9L571.2,131.5L573.4,123.9L575.7,115.1L577.8,116.9L580.0,118.6L582.3,115.7L584.5,114.2L586.7,118.3L589.0,126.6L591.2,117.9L593.4,116.2L595.7,129.8L597.9,147.2L600.2,145.7L602.4,145.4L604.6,140.2L606.9,145.6L609.1,147.4L611.3,146.3L613.6,148.1L615.8,152.6L618.0,146.2L620.3,138.8L622.5,133.3L624.7,129.0L627.0,126.2L629.2,126.8L631.3,123.3L633.6,130.3L635.8,128.8L638.0,134.1L640.3,127.6L642.5,119.9L644.7,112.9L647.0,113.5L649.2,113.1L651.5,111.2L653.7,109.2L655.9,115.7L658.2,117.2L660.4,126.1L662.6,125.3L664.9,129.5L667.1,124.4L669.3,128.7L671.6,136.0L673.8,134.3L676.0,144.7L678.3,142.0L680.5,135.3L682.7,135.6L684.9,141.2L687.1,142.3L689.3,141.2L691.6,142.1L693.8,136.9L696.0,129.3L698.3,129.8L700.5,135.6L702.7,139.2L705.0,139.6L707.2,141.1L709.5,148.5L711.7,153.5L713.9,155.4L716.2,157.2L718.4,156.3L720.6,163.0L722.9,178.8L725.1,177.5L727.3,182.6L729.6,177.9L731.8,178.2L734.0,173.1L736.3,171.2L738.4,171.6L740.6,168.7L742.9,176.0L745.1,181.6L747.3,180.5L749.6,175.4L751.8,182.2L754.0,184.2L756.3,183.4L758.5,182.2L760.7,182.7L763.0,181.8L765.2,178.6L767.5,177.7L769.7,192.6L771.9,192.8L774.2,192.2L776.4,189.8L778.6,189.9L780.9,191.1L783.1,190.8L785.3,191.6L787.6,189.9L789.8,177.9L791.9,172.8L794.2,170.1L796.4,172.2L798.6,175.3L800.9,168.7L803.1,170.6L805.3,173.6L807.6,174.3L809.8,160.2L812.0,160.3L814.3,159.8L816.5,159.5L818.8,155.5L821.0,161.1L823.2,157.6L825.5,159.3L827.7,162.6L829.9,163.0L832.2,160.1L834.4,162.2L836.6,164.8L838.9,163.9L841.1,155.1L843.2,154.9L845.5,155.7L847.7,155.6L849.9,155.9L852.2,157.6L854.4,158.0L856.6,157.5L858.9,164.3L861.1,164.5L863.3,164.8L865.6,165.1L867.8,163.5L870.0,164.1L872.3,160.3L874.5,160.4L876.8,162.1L879.0,156.1L881.2,147.6L883.5,146.7L885.7,143.4L887.9,142.9L890.2,142.7L892.4,138.8L894.6,133.4L896.9,136.8L899.0,134.4L901.2,135.5L903.5,133.1L905.7,136.1L907.9,136.5L910.2,135.8L912.4,135.0L914.6,127.5L916.9,122.9L919.1,123.3L921.3,111.3L923.6,106.0L925.8,106.5L928.1,107.6L930.3,104.0L932.5,105.7L934.8,108.9L937.0,109.7L939.2,111.4L941.5,110.5L943.7,113.0L945.9,108.4L948.2,106.4L950.3,107.1L952.5,105.4L954.8,108.1L957.0,111.3L959.2,111.8L961.5,118.7L963.7,113.6L965.9,106.7L968.2,106.7L970.4,116.3L972.6,115.7L974.9,115.9L977.1,110.2L979.3,117.1L981.6,119.8L983.8,115.2L986.1,110.9L988.3,109.0L990.5,111.6L992.8,111.6L995.0,106.0L997.2,106.9L999.5,106.2L1001.7,96.7L1003.8,90.1L1006.1,84.9L1008.3,85.3L1010.5,82.9L1012.8,81.2L1015.0,86.7L1017.2,87.7L1019.5,84.7L1021.7,87.1L1023.9,83.0L1026.2,82.1L1028.4,85.1L1030.6,85.8L1032.9,86.0L1035.1,86.0L1037.4,87.2L1039.6,96.7L1041.8,95.2L1044.1,92.7L1046.3,95.4L1048.5,98.5L1050.8,94.4L1053.0,93.3L1055.2,87.6L1057.4,87.2L1059.6,81.3L1061.8,79.9L1064.1,78.5L1066.3,80.4L1068.5,80.3L1070.8,80.4L1073.0,83.1L1075.2,78.8L1077.5,78.4L1079.7,73.2L1081.9,74.1L1084.2,73.0L1086.4,75.7L1088.6,73.1L1090.9,74.0L1093.1,76.1L1095.4,78.9L1097.6,77.3L1099.8,75.1L1102.1,75.1L1104.3,76.8L1106.5,71.0L1108.8,75.2L1110.9,78.7L1113.1,75.6L1115.4,77.6L1117.6,80.9L1119.8,87.3L1122.1,92.2L1124.3,89.8L1126.5,89.8L1128.8,91.3L1131.0,90.9L1133.2,91.5L1135.5,89.1L1137.7,89.5L1139.9,87.6L1142.2,92.4L1144.4,99.4L1146.7,104.9L1148.9,106.2L1151.1,107.2L1153.4,108.9L1155.6,108.7L1157.8,102.8L1160.1,107.0L1162.3,108.7L1164.4,106.0L1166.7,104.5L1168.9,101.9L1171.1,98.1L1173.4,98.2L1175.6,95.5L1177.8,99.1L1180.1,99.7L1182.0,99.9" fill="none" stroke="#0d5f4c" stroke-width="2.2"/>
<circle cx="200.5" cy="181.1" r="6" fill="#0d5f4c" stroke="#fbf7f2" stroke-width="2.5"/>
<text x="185.9" y="139.1" fill="#0d5f4c" font-size="16" font-weight="760" font-family="Inter,Arial" text-anchor="start">PEAK</text>
<text x="185.9" y="157.1" fill="#0d5f4c" font-size="16" font-weight="760" font-family="Inter,Arial" text-anchor="start">$19.8K</text>
<circle cx="316.2" cy="292.2" r="6" fill="#b8281f" stroke="#fbf7f2" stroke-width="2.5"/>
<text x="301.6" y="330.2" fill="#b8281f" font-size="16" font-weight="760" font-family="Inter,Arial" text-anchor="start">-84%</text>
<circle cx="654.3" cy="106.2" r="6" fill="#0d5f4c" stroke="#fbf7f2" stroke-width="2.5"/>
<text x="639.7" y="64.2" fill="#0d5f4c" font-size="16" font-weight="760" font-family="Inter,Arial" text-anchor="start">PEAK</text>
<text x="639.7" y="82.2" fill="#0d5f4c" font-size="16" font-weight="760" font-family="Inter,Arial" text-anchor="start">$68.8K</text>
<circle cx="774.5" cy="195.9" r="6" fill="#b8281f" stroke="#fbf7f2" stroke-width="2.5"/>
<text x="759.9" y="233.9" fill="#b8281f" font-size="16" font-weight="760" font-family="Inter,Arial" text-anchor="start">-77%</text>
<circle cx="1108.8" cy="69.7" r="6" fill="#0d5f4c" stroke="#fbf7f2" stroke-width="2.5"/>
<text x="1098.0" y="58" fill="#0d5f4c" font-size="14" font-weight="760" font-family="Inter,Arial" text-anchor="end">ATH</text>
<text x="1098.0" y="74" fill="#0d5f4c" font-size="14" font-weight="760" font-family="Inter,Arial" text-anchor="end">$126K</text>
<circle cx="1182.0" cy="99.1" r="6" fill="#b8281f" stroke="#fbf7f2" stroke-width="2.5"/>
<text x="1175.0" y="124" fill="#b8281f" font-size="14" font-weight="760" font-family="Inter,Arial" text-anchor="end">-39% from ATH</text>
<text x="18.0" y="28" font-size="17" font-weight="730" fill="#182025">Bitcoin price · weekly close, log scale · Jan 2016 – May 2026</text>
</svg>