<svg xmlns="http://www.w3.org/2000/svg" width="1220" height="560" viewBox="0 0 1220 560" role="img" aria-labelledby="title desc">
  <title id="title">Public alternative investment vehicles</title>
  <desc id="desc">Examples of PE/VC listed wrappers and hedge fund ETF wrappers, with underlying assets, strategy exposure, and premium or discount to NAV highlights.</desc>
  <style>
    text{font-family:Inter,Arial,Helvetica,sans-serif}
    .h{fill:#5d6970;font-size:13px;font-weight:800}
    .small{fill:#667077;font-size:10.5px;font-weight:650}
    .body{fill:#182025;font-size:12px;font-weight:560}
    .bold{fill:#182025;font-size:13px;font-weight:600}
    .nav{font-size:12px;font-weight:780}
    .group{fill:#6b5a46;font-size:12px;font-weight:860;letter-spacing:.04em}
  </style>
  <rect width="100%" height="100%" fill="#fffdf8"/>
  <text x="18" y="30" font-size="23" fill="#182025" font-weight="780">Publicly listed vehicles: examples of alternative wrappers</text>
  <text x="18" y="52" font-size="12" fill="#667077">Mini charts show listing-date to latest available market price change, not total return. Private-asset NAVs can be stale and diverge from traded prices.</text>

  <text x="18" y="84" class="h">Vehicle</text>
  <text x="170" y="84" class="h">Price since listing</text>
  <text x="342" y="84" class="h">Underlying assets / strategy</text>
  <text x="880" y="84" class="h">Premium / discount to NAV</text>
  <line x1="18" y1="96" x2="1200" y2="96" stroke="#d9cec3"/>

  <rect x="18" y="105" width="1182" height="22" rx="5" fill="#f5eee6"/>
  <text x="30" y="121" class="group">PE / VC LISTED WRAPPERS</text>

  <line x1="18" y1="184" x2="1200" y2="184" stroke="#eee5db"/>
  <text x="18" y="151" font-size="20" fill="#7b3294" font-weight="850">RVI</text>
  <text x="18" y="169" class="small">Robinhood Ventures Fund I</text>
  <rect x="170" y="138" width="130" height="38" rx="4" fill="#fbf7f2" stroke="#eee5db"/>
  <polyline points="170,176 192.3,173.7 214.7,168.6 237,174.2 259.3,166 281.7,153.4 300,138" fill="none" stroke="#7b3294" stroke-width="2.6" stroke-linecap="round" stroke-linejoin="round"/>
  <circle cx="300" cy="138" r="3.4" fill="#7b3294"/>
  <text x="170" y="181" class="small">$22 -&gt; $73.71</text>
  <text x="342" y="146" class="bold">Late-stage private-company exposure</text>
  <text x="342" y="163" class="body">OpenAI, Databricks, Revolut and other private-company / SPV positions.</text>
  <text x="880" y="146" class="nav" fill="#8f302c">Price $73.71 vs last cited NAV $24.70</text>
  <text x="880" y="163" class="nav" fill="#8f302c">~+198% premium vs stale NAV</text>

  <line x1="18" y1="246" x2="1200" y2="246" stroke="#eee5db"/>
  <text x="18" y="213" font-size="20" fill="#9a4fb1" font-weight="850">VCX</text>
  <text x="18" y="231" class="small">Fundrise Growth Tech</text>
  <rect x="170" y="200" width="130" height="38" rx="4" fill="#fbf7f2" stroke="#eee5db"/>
  <polyline points="170,238 203.5,200 237,235 270.5,230.1 300,222.8" fill="none" stroke="#9a4fb1" stroke-width="2.6" stroke-linecap="round" stroke-linejoin="round"/>
  <circle cx="300" cy="222.8" r="3.4" fill="#9a4fb1"/>
  <text x="170" y="243" class="small">$31 -&gt; $250.00</text>
  <text x="342" y="208" class="bold">Private growth-tech and AI basket</text>
  <text x="342" y="225" class="body">Anthropic, Databricks, OpenAI, SpaceX, Anduril, Ramp and other VC-backed companies.</text>
  <text x="880" y="208" class="nav" fill="#8f302c">NAV ~$19; price ~$250</text>
  <text x="880" y="225" class="nav" fill="#8f302c">~+1,216% premium as of 14 May 2026</text>

  <line x1="18" y1="330" x2="1200" y2="330" stroke="#eee5db"/>
  <text x="18" y="297" font-size="20" fill="#b8860b" font-weight="850">PSUS</text>
  <text x="18" y="315" class="small">Pershing Square USA</text>
  <rect x="170" y="284" width="130" height="38" rx="4" fill="#fbf7f2" stroke="#eee5db"/>
  <polyline points="170,284 237,311.1 300,322" fill="none" stroke="#b8860b" stroke-width="2.6" stroke-linecap="round" stroke-linejoin="round"/>
  <circle cx="300" cy="322" r="3.4" fill="#b8860b"/>
  <text x="170" y="327" class="small">$50 -&gt; $42.98</text>
  <text x="342" y="292" class="bold">Permanent-capital public-equity wrapper</text>
  <text x="342" y="309" class="body">Concentrated public-company portfolio with activist-style exposure; not pure PE/VC.</text>
  <text x="880" y="292" class="nav" fill="#5d6970">NAV $48.77; price $42.98</text>
  <text x="880" y="309" class="nav" fill="#5d6970">~12% discount</text>

  <rect x="18" y="246" width="1182" height="22" rx="5" fill="#eef4f0"/>
  <text x="30" y="262" class="group">HEDGE FUND STRATEGIES IN ETF WRAPPERS</text>

  <line x1="18" y1="402" x2="1200" y2="402" stroke="#eee5db"/>
  <text x="18" y="369" font-size="20" fill="#0b61a8" font-weight="850">DBMF</text>
  <text x="18" y="387" class="small">iMGP DBi Managed Futures</text>
  <rect x="170" y="356" width="130" height="38" rx="4" fill="#fbf7f2" stroke="#eee5db"/>
  <polyline points="170,394 196.8,386.4 223.6,382.6 250.4,356 277.2,375 300,370.7" fill="none" stroke="#0b61a8" stroke-width="2.6" stroke-linecap="round" stroke-linejoin="round"/>
  <circle cx="300" cy="370.7" r="3.4" fill="#0b61a8"/>
  <text x="170" y="399" class="small">$25 -&gt; $31.13</text>
  <text x="342" y="365" class="bold">Managed futures / CTA replication</text>
  <text x="342" y="382" class="body">Trend-following across liquid futures: equity indexes, rates, currencies and commodities.</text>
  <text x="880" y="373" class="nav" fill="#5d6970">ETF wrapper: generally trades near NAV</text>

  <line x1="18" y1="464" x2="1200" y2="464" stroke="#eee5db"/>
  <text x="18" y="431" font-size="20" fill="#1699d6" font-weight="850">MNA</text>
  <text x="18" y="449" class="small">NYLI Merger Arbitrage ETF</text>
  <rect x="170" y="418" width="130" height="38" rx="4" fill="#fbf7f2" stroke="#eee5db"/>
  <polyline points="170,456 203.5,442.1 237,435.1 270.5,428 300,418" fill="none" stroke="#1699d6" stroke-width="2.6" stroke-linecap="round" stroke-linejoin="round"/>
  <circle cx="300" cy="418" r="3.4" fill="#1699d6"/>
  <text x="170" y="461" class="small">$25 -&gt; $35.90</text>
  <text x="342" y="427" class="bold">Event-driven merger arbitrage</text>
  <text x="342" y="444" class="body">Announced M&amp;A deal spreads, acquirer hedges, cash equivalents and short-duration collateral.</text>
  <text x="880" y="435" class="nav" fill="#5d6970">ETF wrapper: generally trades near NAV</text>

  <line x1="18" y1="526" x2="1200" y2="526" stroke="#eee5db"/>
  <text x="18" y="493" font-size="20" fill="#3c9f91" font-weight="850">QAI</text>
  <text x="18" y="511" class="small">NYLI Hedge Multi-Strategy</text>
  <rect x="170" y="480" width="130" height="38" rx="4" fill="#fbf7f2" stroke="#eee5db"/>
  <polyline points="170,518 196.8,507.7 223.6,500.7 250.4,493.8 277.2,486.9 300,480" fill="none" stroke="#3c9f91" stroke-width="2.6" stroke-linecap="round" stroke-linejoin="round"/>
  <circle cx="300" cy="480" r="3.4" fill="#3c9f91"/>
  <text x="170" y="523" class="small">$25 -&gt; $36.00</text>
  <text x="342" y="489" class="bold">Hedge-fund replication via liquid ETFs</text>
  <text x="342" y="506" class="body">Multi-strategy proxy using liquid ETF holdings rather than private hedge fund vehicles.</text>
  <text x="880" y="497" class="nav" fill="#5d6970">ETF wrapper: generally trades near NAV</text>
</svg>
